<svg xmlns="http://www.w3.org/2000/svg" width="100%" height="100%" viewBox="0 0 29.56 22.02"><defs><style>.a{fill:#fff;}</style></defs><path class="a" d="M22.25,1.96,29.56,0,27.5,7.35,25.67,5.58l-9.09,9.06L12.85,11,1.88,22.02,0,20.04,12.8,7.4l3.78,3.61,7.3-7.25Z"/><path class="a" d="M5.25,22.02V20.88l2.41-2.41v3.55Z"/><path class="a" d="M9.34,22.02V16.69l2.48-2.49v7.82Z"/><path class="a" d="M13.51,22.02V13.81l2.32,2.26v5.95Z"/><path class="a" d="M17.52,22.02V15.91l1.97-1.96v8.07Z"/><path class="a" d="M21.18,22.02V12.24l2.15-2.11V22.02Z"/><path class="a" d="M25.02,22.02V8.44l.74-.75,1.57,1.38V22.02Z"/></svg>