<svg xmlns="http://www.w3.org/2000/svg" width="100%" height="100%" viewBox="0 0 88 88">
  <g id="Group_37" data-name="Group 37" transform="translate(-463 -21)">
    <g id="Path_18" data-name="Path 18" transform="translate(463 21)" fill="#767676" opacity="0.502">
      <path d="M 44 86 C 38.32915878295898 86 32.82899856567383 84.88980102539062 27.65232086181641 82.70025634765625 C 22.65122604370117 80.58497619628906 18.15936088562012 77.55633544921875 14.30152034759521 73.69847869873047 C 10.44366645812988 69.84063720703125 7.415026664733887 65.34877014160156 5.299746513366699 60.34767913818359 C 3.110199928283691 55.17100143432617 2 49.67084121704102 2 44 C 2 38.32915878295898 3.110199928283691 32.82899856567383 5.299746513366699 27.65232086181641 C 7.415026664733887 22.65122604370117 10.44366645812988 18.15936088562012 14.30152034759521 14.30152034759521 C 18.15936088562012 10.44366645812988 22.65122604370117 7.415026664733887 27.65232086181641 5.299746513366699 C 32.82899856567383 3.110199928283691 38.32915878295898 2 44 2 C 49.67084121704102 2 55.17100143432617 3.110199928283691 60.34767913818359 5.299746513366699 C 65.34877014160156 7.415026664733887 69.84063720703125 10.44366645812988 73.69847869873047 14.30152034759521 C 77.55633544921875 18.15936088562012 80.58497619628906 22.65122604370117 82.70025634765625 27.65232086181641 C 84.88980102539062 32.82899856567383 86 38.32915878295898 86 44 C 86 49.67084121704102 84.88980102539062 55.17100143432617 82.70025634765625 60.34767913818359 C 80.58497619628906 65.34877014160156 77.55633544921875 69.84063720703125 73.69847869873047 73.69847869873047 C 69.84063720703125 77.55633544921875 65.34877014160156 80.58497619628906 60.34767913818359 82.70025634765625 C 55.17100143432617 84.88980102539062 49.67084121704102 86 44 86 Z" stroke="none"/>
      <path d="M 44 4 C 38.5982780456543 4 33.36024475097656 5.057044982910156 28.43143081665039 7.141754150390625 C 23.66872406005859 9.156196594238281 19.39055633544922 12.04090881347656 15.71573638916016 15.71573638916016 C 12.04090881347656 19.39055633544922 9.156196594238281 23.66872406005859 7.141754150390625 28.43143081665039 C 5.057044982910156 33.36024475097656 4 38.5982780456543 4 44 C 4 49.4017219543457 5.057044982910156 54.63975524902344 7.141754150390625 59.56856918334961 C 9.156196594238281 64.33127593994141 12.04090881347656 68.60944366455078 15.71573638916016 72.28426361083984 C 19.39055633544922 75.95909118652344 23.66872406005859 78.84379577636719 28.43143081665039 80.85824584960938 C 33.36024475097656 82.94295501708984 38.5982780456543 84 44 84 C 49.4017219543457 84 54.63975524902344 82.94295501708984 59.56856918334961 80.85824584960938 C 64.33127593994141 78.84379577636719 68.60944366455078 75.95909118652344 72.28426361083984 72.28426361083984 C 75.95909118652344 68.60944366455078 78.84379577636719 64.33127593994141 80.85824584960938 59.56856918334961 C 82.94295501708984 54.63975524902344 84 49.4017219543457 84 44 C 84 38.5982780456543 82.94295501708984 33.36024475097656 80.85824584960938 28.43143081665039 C 78.84379577636719 23.66872406005859 75.95909118652344 19.39055633544922 72.28426361083984 15.71573638916016 C 68.60944366455078 12.04090881347656 64.33127593994141 9.156196594238281 59.56856918334961 7.141754150390625 C 54.63975524902344 5.057044982910156 49.4017219543457 4 44 4 M 44 0 C 68.30052185058594 0 88 19.69947814941406 88 44 C 88 68.30052185058594 68.30052185058594 88 44 88 C 19.69947814941406 88 0 68.30052185058594 0 44 C 0 19.69947814941406 19.69947814941406 0 44 0 Z" stroke="none" fill="#707070"/>
    </g>
    <g id="move" transform="translate(481 39)">
      <path id="Path_12" data-name="Path 12" d="M9.406,9,2,16.406l7.406,7.406" transform="translate(-1 9.104)" fill="none" stroke="#fff" stroke-linecap="round" stroke-linejoin="round" stroke-width="4"/>
      <path id="Path_13" data-name="Path 13" d="M9,9.406,16.406,2l7.406,7.406" transform="translate(9.104 -1)" fill="none" stroke="#fff" stroke-linecap="round" stroke-linejoin="round" stroke-width="4"/>
      <path id="Path_14" data-name="Path 14" d="M23.812,19l-7.406,7.406L9,19" transform="translate(9.104 25.594)" fill="none" stroke="#fff" stroke-linecap="round" stroke-linejoin="round" stroke-width="4"/>
      <path id="Path_15" data-name="Path 15" d="M19,9l7.406,7.406L19,23.812" transform="translate(25.594 9.104)" fill="none" stroke="#fff" stroke-linecap="round" stroke-linejoin="round" stroke-width="4"/>
      <line id="Line_11" data-name="Line 11" x2="49.628" transform="translate(2 25.819)" fill="none" stroke="#fff" stroke-linecap="round" stroke-linejoin="round" stroke-width="4"/>
      <line id="Line_12" data-name="Line 12" y2="49.628" transform="translate(25.819 2)" fill="none" stroke="#fff" stroke-linecap="round" stroke-linejoin="round" stroke-width="4"/>
    </g>
  </g>
</svg>
