<?xml version="1.0" encoding="utf-8"?>
<!-- Generator: Adobe Illustrator 19.2.1, SVG Export Plug-In . SVG Version: 6.00 Build 0)  -->
<svg version="1.1" id="layer" xmlns="http://www.w3.org/2000/svg" xmlns:xlink="http://www.w3.org/1999/xlink" x="0px" y="0px"
	 viewBox="0 0 652 652" style="enable-background:new 0 0 652 652;" xml:space="preserve">
<style type="text/css">
	.st0{fill:#18242B;}
</style>
<g id="Layer_2">
	<g>
		<path class="st0" d="M101,342.5c0-9.3-3.6-17.7-9.5-24.2c5.8-6.4,9.3-14.7,9.3-23.9v-6.1h-0.1c-0.2-1.4-1.5-2.5-3-2.5H79.2
			c-1.5,0-2.8,1.1-3,2.5l-0.4,6.1c0,6.5-5.5,11.8-12.1,11.8v0.1h-6.2c-4.3,0-8.4,0.8-12.2,2.1v-52.7c-0.1-1.6-1.5-3-3.1-3H23.7
			c-1.7,0-3.1,1.4-3.1,3v111.6c0,1.6,1.4,3,3.1,3h18.4c1.7,0,3.1-1.4,3.1-3v-24.8h0.2c0-6.5,5.5-11.8,12.1-11.8H64
			c6.7,0,12.1,5.3,12.1,11.8v6.1h0.1v18.7c0,1.6,1.4,3,3.1,3h18.4c1.7,0,3.1-1.4,3.1-3l0.3-18.7v-6.1H101z"/>
		<path class="st0" d="M193,309.4c0-1.6-1.4-3-3.1-3h-18.4c-1.7,0-3.1,1.4-3.1,3v44.9c0,6.5-5.5,11.8-12.3,11.8h-6.5
			c-6.7,0-12.1-5.3-12.1-11.8l-0.1-44.9c0-1.6-1.4-3-3.1-3H116c-1.7,0-3.1,1.4-3.1,3l-0.1,44.9c0,20,16.4,36.2,36.8,36.2h6.5
			c20.4,0,36.9-16.2,36.9-36.2V309.4z"/>
		<path class="st0" d="M205.4,368c0,1.6,1.4,3,3.1,3h18.4c1.7,0,3.1-1.4,3.1-3v-44.9c0-6.5,5.5-11.8,12.2-11.8h6.5
			c6.7,0,12.1,5.3,12.1,11.8l0.1,44.9c0,1.6,1.4,3,3.1,3h18.4c1.7,0,3.1-1.4,3.1-3l0.1-44.9c0-19.9-16.4-36.2-36.8-36.2h-6.5
			c-20.4,0-36.8,16.2-36.8,36.2L205.4,368z"/>
		<path class="st0" d="M378.1,309.4c0-1.6-1.4-3-3.1-3h-18.4c-1.7,0-3.1,1.4-3.1,3v44.9c0,6.5-5.5,11.8-12.2,11.8h-6.5
			c-6.7,0-12.1-5.3-12.1-11.8l-0.1-44.9c0-1.6-1.4-3-3.1-3H301c-1.7,0-3.1,1.4-3.1,3v44.9c0,20,16.4,36.2,36.8,36.2h6.5
			c20.4,0,36.8-16.2,36.8-36.2V309.4z"/>
		<path class="st0" d="M563.2,309.4c0-1.6-1.4-3-3.1-3h-18.4c-1.7,0-3.1,1.4-3.1,3v44.9c0,6.5-5.5,11.8-12.2,11.8h-6.5
			c-6.7,0-12.1-5.3-12.1-11.8l-0.1-44.9c0-1.6-1.4-3-3.1-3h-18.4c-1.7,0-3.1,1.4-3.1,3l-0.1,44.9c0,20,16.4,36.2,36.8,36.2h6.5
			c20.4,0,36.8-16.2,36.8-36.2L563.2,309.4z"/>
		<path class="st0" d="M390.6,367.3c0,1.7,1.4,3,3.1,3h18.4c1.7,0,3.1-1.3,3.1-3v-44.8c0-6.5,5.5-11.8,12.2-11.8h6.5
			c6.7,0,12.1,5.3,12.1,11.8l0.1,44.9c0,1.7,1.4,3,3.1,3h18.4c1.7,0,3.1-1.3,3.1-3l0.1-44.9c0-20-16.4-36.2-36.8-36.2h-6.5
			c-20.4,0-36.8,16.2-36.8,36.2L390.6,367.3z"/>
		<path class="st0" d="M577.8,283.6"/>
		<path class="st0" d="M577.8,274"/>
		<g>
			<path class="st0" d="M579.4,259.6c-1.2-1.2-3.3-1.2-4.5,0l-1.2,1.2c-1.2,1.2-1.2,3.2,0,4.5l7.4,7.2c1,1,0.9,2.6-0.1,3.5l-0.9,0.9
				c-1,1-2.6,1-3.6,0l-7.4-7.2c-3.8-3.7-3.8-9.8-0.1-13.5l1.2-1.2c3.8-3.7,10-3.7,13.8,0.1l6.9,6.8l0.5,0.5c1,1,1,2.5,0,3.5
				l-0.9,0.9c-1,1-2.7,1.1-3.7,0.1L579.4,259.6z"/>
			<path class="st0" d="M613.1,265.3c1.2-1.2,1.2-3.2,0-4.4l-1.2-1.2c-1.2-1.2-3.3-1.2-4.5,0l-7.4,7.2c-1,1-2.6,0.9-3.6-0.1
				l-0.9-0.9c-1-1-1-2.5-0.1-3.5l7.4-7.3c3.8-3.7,10-3.8,13.8-0.1l1.2,1.2c3.8,3.8,3.8,9.8,0,13.5l-6.9,6.8l-0.5,0.5
				c-1,1-2.6,1-3.6,0l-0.9-0.9c-1-1-1.1-2.6-0.1-3.5L613.1,265.3z"/>
			<path class="st0" d="M573.6,292.6c-1.2,1.2-1.2,3.2,0,4.5l1.2,1.2c1.2,1.2,3.3,1.2,4.5,0l7.4-7.2c1-1,2.6-0.9,3.6,0.1l0.9,0.9
				c1,1,1,2.5,0.1,3.5l-7.4,7.2c-3.8,3.8-10,3.8-13.8,0.1l-1.2-1.2c-3.8-3.7-3.8-9.8,0.1-13.4l6.9-6.8l0.5-0.5c1-1,2.6-1,3.6,0
				l0.9,0.9c1,1,1.1,2.6,0.1,3.5L573.6,292.6z"/>
			<path class="st0" d="M607.3,298.1c1.2,1.2,3.3,1.2,4.5,0l1.2-1.2c1.2-1.2,1.3-3.2,0-4.5l-7.4-7.2c-1-1-0.9-2.5,0.1-3.5l0.9-0.9
				c1-1,2.6-1,3.6-0.1l7.4,7.2c3.8,3.7,3.8,9.8,0.1,13.5l-1.2,1.2c-3.8,3.8-10,3.7-13.8-0.1l-6.9-6.8l-0.5-0.5c-1-1-1-2.5,0-3.5
				l0.9-0.9c1-1,2.7-1.1,3.7-0.1L607.3,298.1z"/>
		</g>
	</g>
</g>
</svg>
