<?xml version="1.0" encoding="UTF-8"?>
<svg width="190px" height="73px" viewBox="0 0 190 73" version="1.1" xmlns="http://www.w3.org/2000/svg" xmlns:xlink="http://www.w3.org/1999/xlink">
    <!-- Generator: Sketch 45.2 (43514) - http://www.bohemiancoding.com/sketch -->
    <title>eA-logo</title>
    <desc>Created with Sketch.</desc>
    <defs></defs>
    <g id="Page-1" stroke="none" stroke-width="1" fill="none" fill-rule="evenodd">
        <g id="eA-logo" fill-rule="nonzero" fill="#CC0000">
            <path d="M71.6,36.6 C71.6,26.4 78,17.6 87.1,14.2 C80.5,6.1 70.5,0.9 59.3,0.9 L35.8,0.9 C25.9,0.9 17,4.9 10.5,11.4 C4,17.8 0,26.8 0,36.6 C0,56.3 16,72.3 35.7,72.3 L59.2,72.3 C69.1,72.3 78,68.3 84.5,61.8 C85.4,60.9 86.3,59.9 87.1,58.9 C78,55.6 71.6,46.9 71.6,36.6 Z M40.6,14.2 C42.6,14.2 44.3,15.8 44.3,17.8 C44.3,19.8 42.7,21.4 40.6,21.4 C38.6,21.4 36.9,19.8 36.9,17.8 C36.9,15.9 38.5,14.2 40.6,14.2 Z M52.7,48.4 L52.7,48.4 C51.2,53 47.7,56.9 42.8,58.4 C35.1,60.8 26.9,56.3 24.5,48.4 L24.5,48.4 C23.8,46.2 23.6,43.9 23.9,41.5 C24.6,36.3 27.8,32.1 32.1,29.9 L32.1,29.9 C32.5,29.7 32.9,29.6 33.3,29.7 C34.5,29.9 35.2,31 35.1,32.2 C35,33 34.5,33.6 33.8,33.9 L33.7,33.9 C30.8,35.5 28.7,38.4 28.2,42 C28,43.7 28.1,45.3 28.6,46.8 L28.6,46.8 C29,48.2 29.7,49.4 30.6,50.5 C30.6,50.6 30.7,50.6 30.7,50.7 C30.8,50.9 31,51 31.1,51.2 C31.2,51.4 31.4,51.5 31.6,51.7 L31.7,51.8 C33.2,53.2 35.4,54.3 37.5,54.6 L37.5,54.6 C38.9,54.8 40.4,54.7 41.8,54.2 C45.1,53.2 47.6,50.6 48.7,47.4 L48.7,47.3 C48.9,46.6 49.4,46 50.1,45.7 C51.2,45.4 52.4,46 52.7,47.1 C52.9,47.5 52.9,48 52.7,48.4 Z M66.8,50.8 L62.6,53.1 C62.6,53.1 62.5,53.1 62.5,53.1 C62.5,53.1 62.4,53.1 62.4,53.1 C62.2,53.2 62,53.2 61.8,53.2 L61.7,53.2 C61.6,53.2 61.5,53.2 61.3,53.2 C60.8,53.1 60.4,52.8 60.1,52.4 L54.3,43.6 L40.9,43.6 C40.7,43.6 40.6,43.6 40.4,43.6 C39.1,43.5 38,42.3 38,41 L38,26 C38,24.6 39.2,23.4 40.6,23.4 C42,23.4 43.2,24.6 43.2,26 L43.2,30.8 L51.2,30.8 C52.4,30.8 53.3,31.8 53.3,33.1 C53.3,34.4 52.4,35.4 51.2,35.4 L43.2,35.4 L43.2,39.1 L54.7,39.1 C55.9,39.2 56.3,39.9 56.6,40.2 L62.7,49.5 L65.1,48.1 C65.9,47.7 66.9,47.9 67.3,48.7 C67.8,49.4 67.5,50.4 66.8,50.8 Z" id="Shape"></path>
            <path d="M132.7,38.9 L132.7,19.4 C132.7,19.2 132.8,19.1 133,19.1 L155.7,19.1 C155.9,19.1 156,19.2 156,19.4 L156,38.9 C156,39.1 155.9,39.2 155.7,39.2 L133,39.2 C132.8,39.2 132.7,39 132.7,38.9 Z" id="Shape"></path>
            <path d="M154.2,0.9 L130.7,0.9 C120.8,0.9 111.9,4.9 105.4,11.4 C104.6,12.2 103.8,13 103.1,13.9 C112.6,17.1 119.5,26.1 119.5,36.6 C119.5,47.2 112.6,56.2 103.1,59.3 C109.6,67.2 119.6,72.3 130.7,72.3 L154.2,72.3 C164.1,72.3 173,68.3 179.5,61.8 C186,55.3 190,46.4 190,36.5 C190,16.9 174,0.9 154.2,0.9 Z M128.5,15.1 C128.5,14.9 128.6,14.7 128.8,14.7 L159.6,14.7 C159.8,14.7 159.9,14.9 159.9,15.1 L159.9,44.1 C159.9,44.3 159.8,44.5 159.6,44.5 L128.8,44.5 C128.6,44.5 128.5,44.3 128.5,44.1 L128.5,15.1 Z M160.7,58.1 C160.7,58.3 160.5,58.5 160.3,58.5 L128.2,58.5 C128,58.5 127.8,58.3 127.8,58.1 L127.8,46.4 C127.8,46.2 128,46 128.2,46 L160.3,46 C160.5,46 160.7,46.2 160.7,46.4 L160.7,58.1 Z M157.8,52.8 L154.6,52.8 C154.4,52.8 154.3,52.9 154.3,53.1 L154.3,56.3 C154.3,56.5 154.5,56.6 154.6,56.6 L157.8,56.6 C158,56.6 158.1,56.4 158.1,56.3 L158.1,53.1 C158.2,52.9 158,52.8 157.8,52.8 Z M151.8,51.6 L155,51.6 C155.2,51.6 155.3,51.4 155.3,51.2 L155.3,48 C155.3,47.8 155.1,47.7 155,47.7 L151.8,47.7 C151.6,47.7 151.5,47.8 151.5,48 L151.5,51.2 C151.5,51.5 151.6,51.6 151.8,51.6 Z M151.8,52.8 L148.6,52.8 C148.4,52.8 148.3,52.9 148.3,53.1 L148.3,56.3 C148.3,56.5 148.5,56.6 148.6,56.6 L151.8,56.6 C152,56.6 152.1,56.4 152.1,56.3 L152.1,53.1 C152.2,52.9 152,52.8 151.8,52.8 Z M145.8,51.6 L149,51.6 C149.2,51.6 149.3,51.4 149.3,51.2 L149.3,48 C149.3,47.8 149.1,47.7 149,47.7 L145.8,47.7 C145.6,47.7 145.5,47.8 145.5,48 L145.5,51.2 C145.5,51.5 145.6,51.6 145.8,51.6 Z M145.8,52.8 L142.6,52.8 C142.4,52.8 142.3,52.9 142.3,53.1 L142.3,56.3 C142.3,56.5 142.5,56.6 142.6,56.6 L145.8,56.6 C146,56.6 146.1,56.4 146.1,56.3 L146.1,53.1 C146.2,52.9 146,52.8 145.8,52.8 Z M139.8,51.6 L143,51.6 C143.2,51.6 143.3,51.4 143.3,51.2 L143.3,48 C143.3,47.8 143.1,47.7 143,47.7 L139.8,47.7 C139.6,47.7 139.5,47.8 139.5,48 L139.5,51.2 C139.5,51.5 139.6,51.6 139.8,51.6 Z M139.8,52.8 L136.6,52.8 C136.4,52.8 136.3,52.9 136.3,53.1 L136.3,56.3 C136.3,56.5 136.5,56.6 136.6,56.6 L139.8,56.6 C140,56.6 140.2,56.4 140.2,56.3 L140.2,53.1 C140.2,52.9 140,52.8 139.8,52.8 Z M133.8,51.6 L137,51.6 C137.2,51.6 137.4,51.4 137.4,51.2 L137.4,48 C137.4,47.8 137.2,47.7 137,47.7 L133.8,47.7 C133.6,47.7 133.5,47.8 133.5,48 L133.5,51.2 C133.5,51.5 133.6,51.6 133.8,51.6 Z M133.8,52.8 L130.6,52.8 C130.4,52.8 130.3,52.9 130.3,53.1 L130.3,56.3 C130.3,56.5 130.4,56.6 130.6,56.6 L133.8,56.6 C134,56.6 134.2,56.4 134.2,56.3 L134.2,53.1 C134.1,52.9 134,52.8 133.8,52.8 Z" id="Shape"></path>
            <g id="Shape" transform="translate(179.000000, 67.000000)">
                <polygon points="2.3 5 2.3 1 0.9 1 0.9 0.2 4.7 0.2 4.7 1 3.3 1 3.3 5"></polygon>
                <polygon points="5.3 5 5.3 0.2 6.7 0.2 7.6 3.5 8.5 0.2 9.9 0.2 9.9 5 9 5 9 1.2 8 5 7.1 5 6.2 1.2 6.2 5"></polygon>
            </g>
            <g id="Shape" transform="translate(86.000000, 22.000000)">
                <path d="M19.3,10.1 L0.2,0.2 C0.2,4.3 0.7,6.9 3.5,8.4 L13.1,13.4 L19.3,10.1 Z"></path>
                <path d="M21.8,11.4 L15.6,14.6 L15.6,14.6 L3.6,20.8 C0.9,22.3 0.2,25.5 0.2,29 L17.5,20 C21.3,18 21.8,15.4 21.8,11.4 L21.8,11.4 Z"></path>
            </g>
        </g>
    </g>
</svg>